HIERARCHY
ROOT hip
{
	OFFSET 0.000000 0.000000 0.000000 
	CHANNELS 6 Xposition Yposition Zposition Xrotation Zrotation Yrotation
	JOINT abdomen
	{
		OFFSET 0.000000 3.402643 0.000000 
		CHANNELS 3 Xrotation Zrotation Yrotation
		JOINT chest
		{
			OFFSET 0.000000 8.438565 -0.680529 
			CHANNELS 3 Xrotation Zrotation Yrotation
			JOINT neck
			{
				OFFSET 0.000000 10.207942 -0.272212 
				CHANNELS 3 Xrotation Zrotation Yrotation
				JOINT head
				{
					OFFSET 0.000000 3.130431 0.000000 
					CHANNELS 3 Xrotation Zrotation Yrotation
					End Site
					{
						OFFSET 0.000000 3.130435 0.000000 
					}
				}
			}
			JOINT lCollar
			{
				OFFSET 3.470700 6.669187 -0.816635 
				CHANNELS 3 Yrotation Zrotation Xrotation
				JOINT lShldr
				{
					OFFSET 3.198488 0.000000 0.000000 
					CHANNELS 3 Zrotation Yrotation Xrotation
					JOINT lForeArm
					{
						OFFSET 10.139888 0.000000 0.000000 
						CHANNELS 3 Yrotation Zrotation Xrotation
						JOINT lHand
						{
							OFFSET 8.370511 0.000000 0.000000 
							CHANNELS 3 Zrotation Yrotation Xrotation
							End Site
							{
								OFFSET 4.083176 0.000000 0.000000 
							}
						}
					}
				}
			}
			JOINT rCollar
			{
				OFFSET -3.470700 6.669187 -0.816635 
				CHANNELS 3 Yrotation Zrotation Xrotation
				JOINT rShldr
				{
					OFFSET -3.198488 0.000000 0.000000 
					CHANNELS 3 Zrotation Yrotation Xrotation
					JOINT rForeArm
					{
						OFFSET -10.139888 0.000000 0.000000 
						CHANNELS 3 Yrotation Zrotation Xrotation
						JOINT rHand
						{
							OFFSET -8.370511 0.000000 0.000000 
							CHANNELS 3 Zrotation Yrotation Xrotation
							End Site
							{
								OFFSET -4.083176 0.000000 0.000000 
							}
						}
					}
				}
			}
		}
	}
	JOINT lThigh
	{
		OFFSET 5.308129 -1.633274 1.361059 
		CHANNELS 3 Xrotation Zrotation Yrotation
		JOINT lShin
		{
			OFFSET -2.041588 -20.007561 0.000000 
			CHANNELS 3 Xrotation Zrotation Yrotation
			JOINT lFoot
			{
				OFFSET 0.000000 -19.190928 -1.224953 
				CHANNELS 3 Xrotation Yrotation Zrotation
				End Site
				{
					OFFSET 0.000000 -2.449906 4.627600 
				}
			}
		}
	}
	JOINT rThigh
	{
		OFFSET -5.308129 -1.633274 1.361059 
		CHANNELS 3 Xrotation Zrotation Yrotation
		JOINT rShin
		{
			OFFSET 2.041588 -20.007561 0.000000 
			CHANNELS 3 Xrotation Zrotation Yrotation
			JOINT rFoot
			{
				OFFSET 0.000000 -19.190928 -1.224953 
				CHANNELS 3 Xrotation Yrotation Zrotation
				End Site
				{
					OFFSET 0.000000 -2.449906 4.627600 
				}
			}
		}
	}
}
MOTION
Frames: 8
Frame Time: 0.033333
2.294647 50.242611 3.204998 1.276111 -0.644523 0.283185 0.000000 0.000000 0.000000 -5.911279 0.644524 -0.273420 7.012697 0.537038 -0.937459 6.027277 0.976403 -1.035172 -0.414451 10.813996 -4.831627 -15.698603 2.768491 -19.602310 0.718237 0.834825 20.682745 0.565918 -10.825450 -3.367541 -1.199543 -9.405128 -4.928265 13.049339 -12.475525 -0.853124 0.118632 3.269795 4.264209 0.775484 11.635492 -3.181561 3.650188 5.691700 4.941906 -0.655187 -3.523437 12.380906 -3.148123 0.014957 -0.869875 2.907009 -10.538935 -8.259256 1.461856 2.249779 0.531965 -0.117575 0.008277 8.767347 
2.154277 50.234688 3.264703 0.971341 -0.410131 -0.634819 0.000000 0.000000 0.000000 -5.702435 0.449218 0.087964 7.000232 0.214837 -0.458981 6.117513 0.986209 -0.888708 0.108777 10.317466 -4.646727 -15.695679 2.767489 -19.731455 0.696328 0.873508 20.390026 1.093977 -10.951311 -3.431173 -0.686335 -9.556185 -4.713536 13.296880 -12.494606 -0.852449 0.112182 3.395274 4.049717 0.529187 11.611993 -3.221415 4.312404 5.523874 4.970951 -1.006665 -3.425534 13.272294 -3.260583 0.030083 -0.768933 3.063001 -10.333552 -7.907574 1.254311 1.817396 -0.131116 -0.031866 -0.028559 9.356346 
1.963357 50.219982 3.328258 0.952718 -0.253848 -1.230500 0.000000 0.000000 0.000000 -5.770366 0.312498 0.205128 6.884952 -0.078125 -0.136732 6.309624 0.800734 -0.624939 0.671230 9.763278 -4.756973 -15.546834 2.658982 -19.566732 0.696615 0.765755 20.174875 1.179520 -10.721261 -3.443886 -0.349014 -9.525194 -4.761748 13.133299 -12.313491 -0.488760 0.113592 3.709238 4.139221 0.720001 11.417119 -3.189008 4.450417 5.593104 5.064035 -0.732961 -3.405441 13.721493 -3.424708 0.045568 -1.512961 3.270178 -10.290113 -7.967206 0.777871 1.885765 -0.509253 -0.334163 -0.059232 9.103179 
1.760352 50.219109 3.395656 1.048513 -0.126902 -1.621112 0.000000 0.000000 0.000000 -5.965533 0.224606 0.322301 6.777053 -0.244140 0.068359 6.614919 0.683566 -0.517541 0.864784 9.815886 -4.946366 -15.991440 2.840933 -19.199310 0.757488 0.630207 20.066835 1.112261 -10.598055 -3.430091 -0.351535 -9.663606 -4.941555 13.376135 -12.004296 -0.397856 0.093884 3.828402 4.599767 0.676099 11.278046 -3.209508 4.476538 5.658093 5.080513 -0.693241 -3.336444 14.175717 -3.446684 0.048779 -1.923758 3.563057 -10.368526 -8.278428 0.057966 2.258706 -0.379325 -0.195235 -0.078572 8.747144 
1.540346 50.229824 3.459576 1.127620 0.146392 -2.031243 0.000000 0.000000 0.000000 -6.132704 0.009765 0.634767 6.658515 -0.332027 0.283198 6.860651 0.527324 -0.498026 0.928216 9.820111 -5.086035 -16.310110 3.025442 -18.608019 0.857986 0.383992 19.939081 1.148154 -10.370933 -3.435179 -0.428263 -9.834911 -5.132662 13.605904 -11.704712 -0.186038 0.090942 3.977276 4.894026 0.629744 11.216819 -3.220371 4.743892 5.526052 5.021212 -1.151841 -3.287767 14.684560 -3.243437 0.041143 -1.703969 3.804034 -10.509435 -8.566103 -0.536107 2.591034 -0.069223 -0.262822 -0.009541 8.346922 
1.295686 50.256611 3.513505 1.007378 0.204912 -2.304673 0.000000 0.000000 0.000000 -6.083880 0.009765 0.615236 6.616600 -0.527325 0.488261 6.814548 0.351558 -0.302729 1.026128 9.566547 -5.042459 -16.557167 3.210601 -18.538055 0.992833 0.327130 19.840630 1.087127 -9.992921 -3.430956 -0.161043 -9.739947 -5.052314 13.406780 -11.477553 -0.296116 0.066833 4.026306 5.178578 0.830462 11.335632 -3.187241 5.232382 5.662200 5.194082 -1.709363 -3.279121 14.781559 -2.842618 0.023849 -1.582362 4.145848 -10.353084 -8.756108 -1.015529 2.888496 0.098869 0.023706 0.022163 7.881371 
1.032568 50.271965 3.549351 0.956104 0.263455 -2.324239 0.000000 0.000000 0.000000 -6.046087 -0.097649 0.683593 6.588232 -0.410141 0.498034 6.884952 -0.068359 -0.156262 0.998564 9.882751 -5.007350 -17.134380 3.290452 -18.179644 1.181074 0.114693 19.351435 1.074977 -9.602242 -3.435434 -0.128674 -9.634684 -5.031416 13.349434 -11.338439 -0.112814 0.082830 4.097171 5.276665 0.446000 11.323789 -3.244613 5.592775 5.944609 5.496251 -2.264228 -3.395013 14.510343 -2.392013 0.057487 -1.566520 4.399228 -10.158020 -8.859984 -1.305027 3.115182 -0.141135 0.159725 0.009492 7.455695 
0.789816 50.277630 3.589574 0.708478 0.390368 -2.080096 0.000000 0.000000 0.000000 -5.821332 -0.166013 0.351561 6.655102 -0.673809 0.429658 6.474563 -0.068359 0.039062 0.729692 9.199954 -4.798627 -16.862181 3.581431 -18.165350 1.347642 0.114398 19.486940 0.880233 -9.280985 -3.420177 -0.278181 -9.747058 -4.814756 13.189055 -10.716879 -0.417281 0.077215 4.156608 5.414428 0.287099 11.207013 -3.257905 5.989042 6.029466 5.588964 -2.595613 -3.326255 14.374686 -2.073692 0.038234 -1.604265 4.655794 -10.104068 -9.106723 -1.045205 3.348045 -0.374957 -0.013060 -0.017790 7.042530 
